<svg width="11" height="9" viewBox="0 0 11 9" fill="none" xmlns="http://www.w3.org/2000/svg">
<path d="M1.25284 4.08001C1.15911 4.17297 1.0847 4.28359 1.03394 4.40545C0.983167 4.52731 0.957031 4.65802 0.957031 4.79003C0.957031 4.92204 0.983167 5.05275 1.03394 5.17461C1.0847 5.29647 1.15911 5.40703 1.25284 5.49999L3.65883 7.906C3.75194 7.9994 3.86261 8.0735 3.98447 8.12395C4.10632 8.17441 4.23695 8.20024 4.36884 8.2C4.62465 8.20035 4.87085 8.10264 5.05682 7.92699L10.6428 2.67602C10.7394 2.58601 10.8171 2.4778 10.8716 2.3576C10.9261 2.2374 10.9562 2.10761 10.9603 1.9757C10.9644 1.84379 10.9424 1.71232 10.8954 1.58898C10.8485 1.46564 10.7776 1.35283 10.6868 1.25701C10.5968 1.16034 10.4885 1.08247 10.3682 1.02788C10.248 0.973303 10.118 0.943108 9.98601 0.939017C9.85398 0.934926 9.72244 0.957051 9.599 1.00408C9.47556 1.05111 9.36267 1.1221 9.26683 1.213L4.39082 5.79699L2.67383 4.08001C2.58085 3.98613 2.47019 3.91163 2.34824 3.86077C2.22628 3.80991 2.09546 3.78368 1.96333 3.78368C1.8312 3.78368 1.70038 3.80991 1.57843 3.86077C1.45648 3.91163 1.34582 3.98613 1.25284 4.08001Z" fill="white"/>
</svg>
